<?xml version="1.0" encoding="UTF-8" standalone="yes"?>
<!DOCTYPE svg PUBLIC "-//W3C//DTD SVG 1.1//EN" "http://www.w3.org/Graphics/SVG/1.1/DTD/svg11.dtd">
<svg xmlns="http://www.w3.org/2000/svg" xmlns:xlink="http://www.w3.org/1999/xlink" version="1.1" width="6599.1" height="5029.6" viewBox="-310,-215 659,502">



<g id="Nassau">
<path id="2787" d="M 21441,24400 l 109,80 5,86 53,120 10,65 54,272 54,332 112,684 91,503 12,207 -81,21 -36,5 -51,31 -36,40 -61,11 -21,-30 -51,-10 -47,-4 -35,20 -21,20 -20,16 -26,10 -81,16 -62,26 -97,5 -67,11 -61,-4 -41,15 -36,41 -25,-10 -52,-25 -97,11 -21,10 -35,6 -21,15 -10,40 -15,31 -46,15 -72,-34 -20,5 -10,20 -10,51 -31,20 -51,5 -26,-19 -31,-10 -25,0 -31,30 -41,26 -15,25 -41,21 -46,5 -56,16 -20,35 -66,97 -56,10 -11,-30 5,-30 15,-36 0,-50 -11,-30 -31,-40 -41,-5 -82,1 -46,10 -25,31 -10,25 -5,20 -5,41 -10,20 -36,0 -21,-25 0,-35 -31,-15 -41,26 -51,25 -25,56 26,45 77,19 77,-10 15,25 6,15 -26,30 -51,6 -92,6 -118,21 -87,5 5,26 26,14 82,35 93,14 133,-6 164,-26 297,-18 199,-27 113,24 134,-21 46,10 15,-1 -5,36 -15,35 -46,36 -51,15 -67,-14 -159,-9 -163,47 -200,7 -333,18 -211,-29 -189,-18 -103,-15 41,-40 87,-16 -1,-91 -57,-65 10,-10 -26,-40 -76,26 -57,-40 -6,-91 25,-75 26,-31 82,-36 9,-35 16,-36 9,-70 133,-57 -1,-146 -11,-176 -18,-327 -22,-151 173,-113 31,-25 -17,-156 -402,-385 5,-50 -1,-76 -26,-55 -37,-70 -5,-40 10,-41 41,-65 4,-31 -5,-30 -21,-45 10,-45 46,-16 36,35 57,35 72,55 72,24 32,126 16,65 51,-20 -1,-51 25,-66 15,-80 36,-61 -1,-30 -10,-20 -16,-25 -36,-25 -46,-5 -72,1 -61,-25 -52,-60 5,-35 46,-51 -11,-50 5,-61 51,-10 66,-41 62,4 67,35 87,45 77,29 47,35 26,65 77,121 69,200 21,91 56,15 10,-116 -27,-101 -47,-90 15,-101 10,-46 10,-40 -16,-25 -15,-25 -42,-55 20,-61 5,-20 40,-131 56,-61 86,-137 103,19 82,-26 91,-56 123,-46 31,-11 71,-41 87,10 77,34 67,-5 36,-16 56,-20 56,-46 46,14 67,35 42,60 -15,61 -82,91 -4,56 -67,-35 30,-101 -21,-65 -36,-10 -46,15 -51,26 -36,21 -251,42 63,130 51,-15 -26,-70 158,-42 -5,35 21,35 6,71 21,50 16,45 92,20 108,24 77,-1 30,-25 -21,-51 -31,-80 61,-81 46,-6 31,10 31,40 21,116 82,60 z"/>
<path id="2859" d="M 21960,27207 l 17,151 -205,67 -276,73 -348,84 -179,57 -128,51 -51,1 5,-35 41,-66 148,-72 112,-51 87,-21 127,-97 98,-6 31,35 71,-11 51,-31 41,-20 46,-21 62,-15 76,-16 87,-31 z"/>
</g>

</svg>